<?xml version="1.0" encoding="UTF-8"?>
<svg id="Layer_2" data-name="Layer 2" xmlns="http://www.w3.org/2000/svg" viewBox="0 0 227.49 291.16">
  <defs>
    <style>
      .cls-1, .cls-2, .cls-3, .cls-4, .cls-5, .cls-6, .cls-7, .cls-8, .cls-9, .cls-10, .cls-11, .cls-12, .cls-13, .cls-14, .cls-15, .cls-16, .cls-17, .cls-18, .cls-19, .cls-20, .cls-21, .cls-22, .cls-23, .cls-24 {
        stroke-miterlimit: 10;
      }

      .cls-1, .cls-3, .cls-4, .cls-5, .cls-6, .cls-7, .cls-8, .cls-9, .cls-10, .cls-11, .cls-12, .cls-13, .cls-15, .cls-16, .cls-17, .cls-18, .cls-19, .cls-20, .cls-21, .cls-22, .cls-23, .cls-24 {
        stroke-linecap: round;
      }

      .cls-1, .cls-4 {
        fill: #f3c09a;
        stroke: #f3c09a;
      }

      .cls-2 {
        stroke-width: 20px;
      }

      .cls-2, .cls-7, .cls-18 {
        stroke: #231f20;
      }

      .cls-2, .cls-24 {
        fill: none;
      }

      .cls-3 {
        stroke-width: 8px;
      }

      .cls-3, .cls-10 {
        fill: #142f3b;
      }

      .cls-3, .cls-10, .cls-24 {
        stroke: #142f3b;
      }

      .cls-4 {
        stroke-width: 9px;
      }

      .cls-5 {
        stroke-width: .25px;
      }

      .cls-5, .cls-7, .cls-18 {
        fill: #231f20;
      }

      .cls-5, .cls-11, .cls-19 {
        stroke: #852a93;
      }

      .cls-6, .cls-13 {
        fill: #832b8e;
        stroke: #832b8e;
      }

      .cls-6, .cls-17 {
        stroke-width: 6px;
      }

      .cls-8 {
        stroke-width: 5px;
      }

      .cls-8, .cls-16 {
        fill: #fff;
        stroke: #fff;
      }

      .cls-9 {
        fill: #571a58;
        stroke: #571a58;
      }

      .cls-10 {
        stroke-width: 7px;
      }

      .cls-11, .cls-15, .cls-18, .cls-20 {
        stroke-width: 4px;
      }

      .cls-11, .cls-19 {
        fill: #852a93;
      }

      .cls-12 {
        fill: #ec9788;
        stroke: #ec9788;
      }

      .cls-14 {
        stroke-width: .75px;
      }

      .cls-14, .cls-15 {
        fill: #e3008d;
        stroke: #e3008d;
      }

      .cls-17 {
        fill: #5e025d;
        stroke: #5e025d;
      }

      .cls-20 {
        fill: #a71e8d;
        stroke: #a71e8d;
      }

      .cls-21 {
        fill: #e43064;
        stroke: #e43064;
      }

      .cls-22 {
        fill: #ac204c;
        stroke: #ac204c;
      }

      .cls-23 {
        fill: #ceeafb;
        opacity: .55;
        stroke: #ceeafb;
      }

      .cls-24 {
        stroke-width: 2px;
      }
    </style>
  </defs>
  <g id="Layer_1-2" data-name="Layer 1">
    <g>
      <path class="cls-12" d="M40.03,160.2l1.99,3.52c2.26,4,7.04,5.62,10.67,3.62l33.11-18.22c3.63-2,4.74-6.86,2.48-10.86l-1.99-3.52c-2.26-4-7.04-5.62-10.67-3.62l-33.11,18.22c-3.63,2-4.74,6.86-2.48,10.86Z"/>
      <g>
        <g>
          <path class="cls-19" d="M170.78,198.06l-2.23.11c-1.81.09-3.35-1.28-3.44-3.06l-1.24-24.89c-.09-1.77,1.31-3.28,3.12-3.37l2.23-.11c1.81-.09,3.35,1.28,3.44,3.06l1.24,24.89c.09,1.77-1.31,3.28-3.12,3.37Z"/>
          <path class="cls-19" d="M200.04,228.76l-2.23.11c-1.81.09-3.35-1.28-3.44-3.06l-1.24-24.89c-.09-1.77,1.31-3.28,3.12-3.37l2.23-.11c1.81-.09,3.35,1.28,3.44,3.06l1.24,24.89c.09,1.77-1.31,3.28-3.12,3.37Z"/>
          <g>
            <path class="cls-19" d="M169.65,224.45l-7.41-5.37c-6.01-4.36-7.27-12.66-2.82-18.55l12.62-16.68c4.45-5.88,12.94-7.12,18.95-2.76l7.41,5.37c6.01,4.36,7.27,12.66,2.82,18.55l-12.62,16.68c-4.45,5.88-12.94,7.12-18.95,2.76Z"/>
            <path class="cls-15" d="M195.46,168.51c-2.92,3.86-8.5,4.68-12.44,1.81-3.95-2.86-4.78-8.32-1.85-12.18s8.5-4.68,12.44-1.81c3.95,2.86,4.78,8.32,1.85,12.18Z"/>
            <path class="cls-19" d="M192.31,166.23c-1.64,2.16-4.75,2.61-6.96,1.01s-2.67-4.65-1.04-6.81,4.75-2.61,6.96-1.01c2.21,1.6,2.67,4.65,1.04,6.81Z"/>
            <path class="cls-15" d="M223.74,189.02c-2.92,3.86-8.5,4.68-12.44,1.81-3.95-2.86-4.78-8.32-1.85-12.18,2.92-3.86,8.5-4.68,12.44-1.81,3.95,2.86,4.78,8.32,1.85,12.18Z"/>
            <path class="cls-19" d="M220.59,186.74c-1.64,2.16-4.75,2.61-6.96,1.01-2.21-1.6-2.67-4.65-1.04-6.81,1.64-2.16,4.75-2.61,6.96-1.01s2.67,4.65,1.04,6.81Z"/>
            <path class="cls-15" d="M211.01,195.82c-6.61,8.73-19.19,10.56-28.11,4.1-8.92-6.47-10.79-18.78-4.18-27.51s19.19-10.56,28.11-4.1c8.92,6.47,10.79,18.78,4.18,27.51Z"/>
            <path class="cls-5" d="M193.62,174.91l-2.45.33-.33-2.36c-.11-.81-.88-1.38-1.71-1.27l-.45.06c-.83.11-1.41.86-1.3,1.68l.33,2.36-2.65.36c-.83.11-1.41.86-1.3,1.68l.06.44c.11.81.88,1.38,1.71,1.27l2.65-.36.37,2.63c.11.81.88,1.38,1.71,1.27l.45-.06c.83-.11,1.41-.86,1.3-1.68l-.37-2.63,2.45-.33c.83-.11,1.41-.86,1.3-1.68l-.06-.44c-.11-.81-.88-1.38-1.71-1.27Z"/>
            <path class="cls-5" d="M206.59,184.32l-2.45.33-.33-2.36c-.11-.81-.88-1.38-1.71-1.27l-.45.06c-.83.11-1.41.86-1.3,1.68l.33,2.36-2.65.36c-.83.11-1.41.86-1.3,1.68l.06.44c.11.81.88,1.38,1.71,1.27l2.65-.36.37,2.63c.11.81.88,1.38,1.71,1.27l.45-.06c.83-.11,1.41-.86,1.3-1.68l-.37-2.63,2.45-.33c.83-.11,1.41-.86,1.3-1.68l-.06-.44c-.11-.81-.88-1.38-1.71-1.27Z"/>
          </g>
          <rect class="cls-19" x="160.59" y="206.94" width="11.86" height="33.46" rx="4.69" ry="4.69"/>
          <rect class="cls-19" x="175.9" y="209.06" width="11.86" height="31.35" rx="4.69" ry="4.69"/>
        </g>
        <g>
          <path class="cls-12" d="M179.99,155.65l.25-.5c1.94-3.85.32-8.52-3.62-10.41l-27.55-13.29c-3.94-1.9-8.7-.31-10.64,3.54l-.25.5c-1.94,3.85-.32,8.52,3.62,10.41l27.55,13.29c3.94,1.9,8.7.31,10.64-3.54Z"/>
          <path class="cls-12" d="M175.49,145.76l-.55-.26c-4.21-2.03-9.3-.34-11.38,3.78l-13.75,27.32c-2.07,4.12-.34,9.11,3.87,11.14l.55.26c4.21,2.03,9.3.34,11.38-3.78l13.75-27.32c2.07-4.12.34-9.11-3.87-11.14Z"/>
          <ellipse class="cls-12" cx="160.39" cy="188.39" rx="14.38" ry="14.08"/>
        </g>
      </g>
      <g>
        <rect class="cls-1" x="96.92" y="222.55" width="13.25" height="45.62" rx="6.62" ry="6.62"/>
        <polygon class="cls-12" points="119.51 284.72 105.38 280.5 123.05 223.77 137.18 227.99 119.51 284.72"/>
        <rect class="cls-1" x="115.93" y="237.63" width="12.97" height="48.1" rx="6.48" ry="6.48" transform="translate(384.09 139.27) rotate(90)"/>
        <g>
          <path class="cls-9" d="M148.26,269.66c-7.06,1.71-13.98-1.28-15.88-7.09-1.9-5.81,1.89-12.38,8.57-15.24l7.31,22.34Z"/>
          <path class="cls-9" d="M157.58,287.1l-13.36-40.82c-.37-1.14-1.59-1.75-2.73-1.37h0c-1.14.38-1.76,1.61-1.39,2.74l13.36,40.82c.37,1.14,1.59,1.75,2.73,1.37h0c1.14-.38,1.76-1.61,1.39-2.74Z"/>
          <path class="cls-9" d="M139.53,261.74h0c.98-1.94.2-4.3-1.73-5.27l-8.27-4.12c-1.94-.97-4.31-.17-5.29,1.77h0c-.98,1.94-.2,4.3,1.73,5.27l8.27,4.12c1.94.97,4.31.17,5.29-1.77Z"/>
          <path class="cls-9" d="M154.06,288.17c-8.96,2.01-18.12-3.03-21.03-11.91-2.91-8.88,1.47-18.44,9.86-22.21l11.17,34.13Z"/>
        </g>
        <g>
          <path class="cls-9" d="M123.69,287.08c-.65-7.55-6.03-13.45-12.56-13.45s-11.92,5.89-12.56,13.45h25.13Z"/>
          <rect class="cls-9" x="96.28" y="286.13" width="50.55" height="4.53" rx="2.26" ry="2.26"/>
          <g>
            <path class="cls-14" d="M123.02,277.86h0c-1.64,1.6-4.3,1.6-5.93,0l-6.98-6.87c-1.64-1.61-1.63-4.21,0-5.82h0c1.64-1.6,4.3-1.6,5.93,0l6.98,6.87c1.64,1.61,1.63,4.21,0,5.82Z"/>
            <path class="cls-14" d="M117.09,277.85h0c-1.64-1.61-1.63-4.21,0-5.82l7-6.84c1.64-1.6,4.3-1.6,5.93,0h0c1.64,1.61,1.63,4.21,0,5.82l-7,6.84c-1.64,1.6-4.3,1.6-5.93,0Z"/>
          </g>
          <path class="cls-19" d="M144.42,286.82c-.99-9.54-9.21-16.99-19.2-16.99s-18.21,7.45-19.2,16.99h38.39Z"/>
        </g>
      </g>
      <g>
        <path class="cls-20" d="M131.99,234.94l-.33.02c-5.56.42-10.37-4.4-10.74-10.77l-1.69-29.25c-.37-6.37,3.84-11.87,9.41-12.29l.33-.02c5.56-.42,10.37,4.4,10.74,10.77l1.69,29.25c.37,6.37-3.84,11.87-9.41,12.29Z"/>
        <path class="cls-20" d="M128.63,233.18l.33.02c5.56.42,10.37-4.4,10.74-10.77l1.69-29.25c.37-6.37-3.84-11.87-9.41-12.29l-.33-.02c-5.56-.42-10.37,4.4-10.74,10.77l-1.69,29.25c-.37,6.37,3.84,11.87,9.41,12.29Z"/>
        <path class="cls-20" d="M98.49,233.74l-.33.02c-5.56.42-10.37-4.4-10.74-10.77l-1.69-29.25c-.37-6.37,3.84-11.87,9.41-12.29l.33-.02c5.56-.42,10.37,4.4,10.74,10.77l1.69,29.25c.37,6.37-3.84,11.87-9.41,12.29Z"/>
        <path class="cls-15" d="M75.58,239.5l.31.12c5.28,2.04,11.01-1.21,12.8-7.26l8.18-27.77c1.78-6.05-1.06-12.6-6.34-14.64l-.31-.12c-5.28-2.04-11.01,1.21-12.8,7.26l-8.18,27.77c-1.78,6.05,1.06,12.6,6.34,14.64Z"/>
        <rect class="cls-15" x="103.51" y="188.87" width="20.52" height="52.42" rx="10.26" ry="10.26"/>
        <path class="cls-15" d="M151.97,239.68l-.31.12c-5.28,2.04-11.01-1.21-12.8-7.26l-8.18-27.77c-1.78-6.05,1.06-12.6,6.34-14.64l.31-.12c5.28-2.04,11.01,1.21,12.8,7.26l8.18,27.77c1.78,6.05-1.06,12.6-6.34,14.64Z"/>
        <path class="cls-11" d="M150.69,196.62v-50.67c0-9.34-7-16.91-15.64-16.91h-43.09c-8.64,0-15.64,7.57-15.64,16.91v50.67h74.37Z"/>
      </g>
      <rect class="cls-12" x="98.42" y="99.3" width="33.97" height="34.3" rx="16.98" ry="16.98"/>
      <ellipse class="cls-4" cx="121.41" cy="89.07" rx="35.63" ry="34.95"/>
      <ellipse class="cls-10" cx="108.13" cy="84.49" rx="6.15" ry="5.47"/>
      <path class="cls-8" d="M113.51,84.57c-.27.49-.93.69-1.48.45s-.77-.83-.51-1.32.93-.69,1.48-.45.77.83.51,1.32Z"/>
      <ellipse class="cls-16" cx="109.48" cy="78.89" rx=".53" ry=".48"/>
      <ellipse class="cls-10" cx="138.71" cy="84.49" rx="5.54" ry="6.32" transform="translate(39.23 212.89) rotate(-83.58)"/>
      <path class="cls-24" d="M150.94,76.68c-.11.2-1.28,2.26-2.93,3.23-1.34.78-2.04.27-2.17.17"/>
      <path class="cls-24" d="M147.62,76.48c-.09.21-1.06,2.37-2.59,3.48-1.24.91-1.96.47-2.09.39"/>
      <path class="cls-24" d="M97.17,77.95c.11.2,1.28,2.26,2.93,3.23,1.34.78,2.04.27,2.17.17"/>
      <path class="cls-24" d="M99.88,76.49c.09.21,1.06,2.37,2.62,3.47,1.27.9,2.01.45,2.14.36"/>
      <ellipse class="cls-12" cx="151.52" cy="100.33" rx="5.28" ry="5.18"/>
      <ellipse class="cls-12" cx="96.48" cy="100.33" rx="5.28" ry="5.18"/>
      <path class="cls-3" d="M124.24,13.71c-31.33,0-56.73,23.69-56.73,52.91h113.45c0-29.22-25.4-52.91-56.73-52.91Z"/>
      <g>
        <rect class="cls-3" x="85.35" y="63.97" width="7.03" height="59.3" rx="3.52" ry="3.52"/>
        <rect class="cls-3" x="75.42" y="62.15" width="7.03" height="51.24" rx="3.52" ry="3.52"/>
        <rect class="cls-3" x="67.51" y="60.33" width="7.03" height="42.33" rx="3.52" ry="3.52"/>
      </g>
      <g>
        <rect class="cls-3" x="156.09" y="63.97" width="7.03" height="59.3" rx="3.52" ry="3.52" transform="translate(319.22 187.25) rotate(180)"/>
        <rect class="cls-3" x="166.02" y="62.15" width="7.03" height="51.24" rx="3.52" ry="3.52" transform="translate(339.08 175.54) rotate(-180)"/>
        <rect class="cls-3" x="173.93" y="60.33" width="7.03" height="42.33" rx="3.52" ry="3.52" transform="translate(354.9 163) rotate(-180)"/>
      </g>
      <ellipse class="cls-12" cx="121.41" cy="99.16" rx="1.46" ry="1.43"/>
      <ellipse class="cls-12" cx="127.71" cy="99.16" rx="1.44" ry="1.41"/>
      <g>
        <path class="cls-21" d="M128.21,107.35c-1.36,0-2.56.73-3.32,1.85-.76-1.12-1.97-1.85-3.32-1.85-2.31,0-4.18,2.11-4.18,4.71,0,3.2,3.36,5.79,7.51,5.79s7.51-2.59,7.51-5.79c0-2.6-1.87-4.71-4.18-4.71Z"/>
        <path class="cls-22" d="M126.37,112.19c.73.72.73,1.89,0,2.61s-1.92.72-2.66,0-.73-1.89,0-2.61,1.92-.72,2.66,0Z"/>
      </g>
      <ellipse class="cls-23" cx="148.92" cy="118.39" rx="24.13" ry="22.09"/>
      <g>
        <ellipse class="cls-6" cx="145.93" cy="28.12" rx="24.11" ry="25.13" transform="translate(-2.03 14.2) rotate(-5.53)"/>
        <ellipse class="cls-6" cx="183.99" cy="60.27" rx="24.11" ry="25.13" transform="translate(-4.95 18.02) rotate(-5.53)"/>
        <ellipse class="cls-17" cx="164.45" cy="45.34" rx="13.9" ry="14.49" transform="translate(-3.6 16.06) rotate(-5.53)"/>
        <line class="cls-17" x1="145.15" y1="23.82" x2="184.44" y2="66.04"/>
      </g>
      <ellipse class="cls-6" cx="97.84" cy="41.63" rx="9.96" ry="9.55" transform="translate(50.36 136.76) rotate(-86.52)"/>
      <ellipse class="cls-6" cx="81.26" cy="56.82" rx="9.96" ry="9.55" transform="translate(19.61 134.48) rotate(-86.52)"/>
      <ellipse class="cls-17" cx="89.08" cy="50.92" rx="5.18" ry="5.08"/>
      <line class="cls-17" x1="97.61" y1="42.56" x2="81.26" y2="58.55"/>
      <g>
        <rect class="cls-14" x="107.39" y="166.9" width="2.55" height="13.95" rx="1.28" ry="1.28"/>
        <rect class="cls-14" x="118.21" y="166.9" width="2.55" height="13.95" rx="1.28" ry="1.28"/>
        <rect class="cls-14" x="113.11" y="166.9" width="2.55" height="13.95" rx="1.28" ry="1.28"/>
        <ellipse class="cls-14" cx="113.78" cy="162.16" rx="11.52" ry="11.27"/>
      </g>
      <g>
        <g>
          <path class="cls-13" d="M110.37,165.21l-.07.07c-.52.51-1.37.51-1.89,0l-2.37-2.33c-.52-.51-.52-1.34,0-1.85l.07-.07c.52-.51,1.37-.51,1.89,0l2.37,2.33c.52.51.52,1.34,0,1.85Z"/>
          <path class="cls-13" d="M108.42,165.28l-.07-.07c-.52-.51-.52-1.34,0-1.85l2.38-2.32c.52-.51,1.37-.51,1.89,0l.07.07c.52.51.52,1.34,0,1.85l-2.38,2.32c-.52.51-1.37.51-1.89,0Z"/>
        </g>
        <g>
          <path class="cls-13" d="M119.52,165.21l-.07.07c-.52.51-1.37.51-1.89,0l-2.37-2.33c-.52-.51-.52-1.34,0-1.85l.07-.07c.52-.51,1.37-.51,1.89,0l2.37,2.33c.52.51.52,1.34,0,1.85Z"/>
          <path class="cls-13" d="M117.56,165.28l-.07-.07c-.52-.51-.52-1.34,0-1.85l2.38-2.32c.52-.51,1.37-.51,1.89,0l.07.07c.52.51.52,1.34,0,1.85l-2.38,2.32c-.52.51-1.37.51-1.89,0Z"/>
        </g>
        <g>
          <path class="cls-13" d="M113.43,164.86l.04-.04c.31-.31.82-.3,1.13,0l1.42,1.4c.31.31.31.8,0,1.11l-.04.04c-.31.31-.82.3-1.13,0l-1.42-1.4c-.31-.31-.31-.8,0-1.11Z"/>
          <path class="cls-13" d="M114.61,164.82l.04.04c.31.31.31.8,0,1.11l-1.43,1.39c-.31.31-.82.3-1.13,0l-.04-.04c-.31-.31-.31-.8,0-1.11l1.43-1.39c.31-.31.82-.3,1.13,0Z"/>
        </g>
      </g>
      <g>
        <path class="cls-2" d="M9.66,88.41c2.94,10.91,13.49,17.25,23.58,14.17"/>
        <g>
          <polygon class="cls-18" points="14.94 18.32 43.16 123.11 47.22 121.87 19.01 17.08 14.94 18.32"/>
          <path class="cls-7" d="M28.03,86.96l15.08,56.02c1.06,3.94,4.87,6.23,8.52,5.12l12.38-3.79c3.64-1.11,5.74-5.21,4.68-9.15l-15.08-56.02c-1.06-3.94-4.87-6.23-8.52-5.12l-12.38,3.79c-3.64,1.11-5.74,5.21-4.68,9.15Z"/>
          <path class="cls-18" d="M24.85,36.67c7.38-.57,13.91,3.09,15.59,9.3l11.96,44.41c1.67,6.21-2.04,13-8.59,16.69L24.85,36.67Z"/>
          <path class="cls-6" d="M22.45,66.24l11.31,42.02c.53,1.97,2.44,3.12,4.26,2.56l7.38-2.26c1.82-.56,2.87-2.61,2.34-4.58l-11.31-42.02c-.53-1.97-2.44-3.12-4.26-2.56l-7.38,2.26c-1.82.56-2.87,2.61-2.34,4.58Z"/>
          <path class="cls-15" d="M37.24,74.62l8.79,32.63c.62,2.31,2.86,3.66,5,3l6.25-1.91c2.14-.65,3.36-3.06,2.74-5.37l-8.79-32.63c-.62-2.31-2.86-3.66-5-3l-6.25,1.91c-2.14.65-3.36,3.06-2.74,5.37Z"/>
          <path class="cls-18" d="M16.82,24.17h0c.17.64.8,1.02,1.39.84l7.47-2.28c.6-.18.94-.85.76-1.5h0c-.17-.64-.8-1.02-1.39-.84l-7.47,2.28c-.6.18-.94.85-.76,1.5Z"/>
          <path class="cls-7" d="M44.39,125.4l-12.93,39.24c-1.05,3.2.5,6.73,3.47,7.89l2.07.81c2.97,1.16,6.23-.49,7.29-3.68l12.93-39.24c1.05-3.2-.5-6.73-3.47-7.89l-2.07-.81c-2.97-1.16-6.23.49-7.29,3.68Z"/>
          <path class="cls-7" d="M42.95,123.76l-17.14,11.34c-2.27,1.5-2.97,4.72-1.56,7.18h0c1.41,2.46,4.4,3.24,6.67,1.74l17.14-11.34c2.27-1.5,2.97-4.72,1.56-7.18h0c-1.41-2.46-4.4-3.24-6.67-1.74Z"/>
        </g>
      </g>
      <ellipse class="cls-1" cx="31.89" cy="123.95" rx="12.48" ry="12.14" transform="translate(-52.58 27.8) rotate(-26.87)"/>
      <path class="cls-8" d="M144.5,85.05c-.27.49-.93.69-1.48.45s-.77-.83-.51-1.32.93-.69,1.48-.45.77.83.51,1.32Z"/>
      <ellipse class="cls-16" cx="140.47" cy="79.37" rx=".53" ry=".48"/>
    </g>
  </g>
</svg>