<?xml version="1.0" encoding="UTF-8"?>
<svg id="Layer_2" data-name="Layer 2" xmlns="http://www.w3.org/2000/svg" viewBox="0 0 306.68 306.96">
  <defs>
    <style>
      .cls-1 {
        fill: #c05c19;
      }

      .cls-2 {
        fill: #b45211;
      }

      .cls-3 {
        fill: #fff;
      }

      .cls-4 {
        fill: none;
      }

      .cls-5 {
        fill: #c55757;
      }

      .cls-6 {
        fill: #e0342c;
      }

      .cls-7 {
        fill: #676563;
      }

      .cls-8 {
        fill: #d9753b;
      }

      .cls-9 {
        fill: #8c512e;
      }

      .cls-10 {
        fill: #c09665;
      }

      .cls-11 {
        fill: #50362c;
      }

      .cls-12 {
        fill: #fea97f;
      }

      .cls-13 {
        fill: #e8dfe0;
      }

      .cls-14 {
        fill: #fffdfd;
      }

      .cls-15 {
        fill: #844232;
      }
    </style>
  </defs>
  <g id="Layer_1-2" data-name="Layer 1">
    <g>
      <g>
        <path class="cls-6" d="M176.06,122.48c10.64-.36,19.58.07,26.14.59,0,0,0,0,0,0s25.17,2.44,29.48,8.69c.4.58.62,1.21.62,1.21.09.26.14.48.17.62h0c.05.29.1.65.1,1.07,0,.29,0,.79-.13,1.38-.1.48-.26,1.25-.84,2.05-.18.25-.66.94-1.56,1.38,0,0-1.25.62-2.97.5-3.94-.29-19.13-6.03-26.59-7.15-3.47-.52-8.72-.56-15.46,2.35"/>
        <path class="cls-4" d="M285.91,188.73c4.27,8.29,11.9,14.79,20.77,17.69"/>
      </g>
      <g>
        <path class="cls-6" d="M67.59,153.15c-7.19,7.85-12.68,14.91-16.55,20.24,0,0,0,0,0,0s-14.52,20.7-12.57,28.04c.18.68.51,1.26.51,1.26.14.24.27.42.36.53h0c.19.23.43.5.74.77.22.2.61.51,1.13.8.43.23,1.12.61,2.1.7.3.03,1.14.11,2.06-.28,0,0,1.29-.54,2.31-1.93,2.35-3.18,7.87-18.45,11.87-24.84,1.86-2.98,5.25-6.99,11.84-10.21"/>
        <path class="cls-4" d="M46.44,279.68c3.52,8.64,3.49,18.66-.07,27.28"/>
      </g>
      <rect class="cls-11" x="143.85" y="189.32" width="37.17" height="58.47" rx="11.66" ry="11.66"/>
      <path class="cls-2" d="M35.39,103.74c-.62,1.45-1.56,3.35-2.94,5.41-1.81,2.71-3.55,4.46-4.95,5.84-2.34,2.32-4.01,3.97-6.68,5.37-2.51,1.31-4.8,1.81-6.31,2.03-11.27-13.15-13.47-17.91-12.39-19.22,1.31-1.6,7.55,1.84,12.38-2.39.02-.02.09-.08.18-.16,5.13-4.74,2.51-12.49,4.72-13.53.54-.25,1.95-.39,9.84,8.96,2.57,3.04,4.64,5.69,6.15,7.68Z"/>
      <path class="cls-7" d="M38.5,130.73l-24.07-26.89c-.98-1.09-.92-2.8.13-3.82l.93-.9c1.05-1.02,2.69-.96,3.67.13l24.07,26.89c.98,1.09.92,2.8-.13,3.82l-.93.9c-1.05,1.02-2.69.96-3.67-.13Z"/>
      <path class="cls-5" d="M28.19,113.75c.31,1.46.61,3.43.63,5.76.03,3.06-.43,5.33-.8,7.13-.63,3.02-1.08,5.18-2.52,7.65-1.35,2.32-2.98,3.89-4.13,4.83C4.41,134.57-.15,131.95,0,130.37c.19-1.93,7.37-2.43,9-8.23,0-.03.03-.11.06-.22,1.59-6.36-5.04-11.11-3.78-13.07.31-.47,1.41-1.31,13.36,2,3.89,1.08,7.14,2.1,9.54,2.89Z"/>
      <path class="cls-7" d="M43.59,134.43l-34.57-9.51c-1.27-.35-2.02-1.7-1.69-3.02l.33-1.29c.33-1.32,1.63-2.1,2.9-1.76l34.57,9.51c1.27.35,2.02,1.7,1.69,3.02l-.33,1.29c-.33,1.32-1.63,2.1-2.9,1.76Z"/>
      <path class="cls-5" d="M51.66,98.27c-.8,1.12-1.95,2.58-3.51,4.1-2.05,2-3.86,3.2-5.31,4.15-2.43,1.59-4.16,2.72-6.71,3.47-2.39.71-4.44.76-5.78.7-7.24-12.92-8.24-17.29-7.08-18.22,1.42-1.14,6.13,2.76,11.04-.04.02-.01.09-.05.18-.11,5.26-3.18,4.44-10.15,6.53-10.68.51-.13,1.74-.02,6.78,9.15,1.64,2.98,2.93,5.55,3.86,7.48Z"/>
      <path class="cls-7" d="M50.39,127.36l-17.55-32.07c-.69-1.26-.27-2.86.94-3.58l1.24-.73c1.21-.72,2.75-.28,3.44.98l17.55,32.07c.69,1.26.27,2.86-.94,3.58l-1.24.73c-1.21.72-2.75.28-3.44-.98Z"/>
      <path class="cls-15" d="M118.73,224.09L30.04,148.52c-4.83-4.12-5.54-11.54-1.59-16.57l19.51-24.82c3.96-5.03,11.08-5.77,15.92-1.65l88.68,75.58c4.83,4.12,5.54,11.54,1.59,16.57l-19.51,24.82c-3.96,5.03-11.08,5.77-15.92,1.65Z"/>
      <rect class="cls-11" x="86.17" y="189.32" width="37.17" height="58.47" rx="11.66" ry="11.66"/>
      <path class="cls-1" d="M71,191.18c-6.34,0-11.93,3.23-15.27,8.15v6.5c0,8.09,6.48,14.65,14.48,14.65h16.06c2.04-3.01,3.24-6.65,3.24-10.57,0-10.34-8.28-18.73-18.5-18.73Z"/>
      <path class="cls-1" d="M192.23,152.97c0,10.34,7.95,18.73,17.76,18.73.34,0,.67-.03,1-.05v-37.34c-.33-.02-.66-.05-1-.05-9.81,0-17.76,8.38-17.76,18.73Z"/>
      <g>
        <path class="cls-8" d="M192.23,209.9c0,3.92-1.15,7.56-3.11,10.57h7.98c6.1,0,11.27-4.15,13.14-9.92l-19.54-8.23c.97,2.32,1.53,4.88,1.53,7.57Z"/>
        <path class="cls-8" d="M211,171.64c-.33.02-.66.05-1,.05-9.81,0-17.76-8.38-17.76-18.73s7.95-18.73,17.76-18.73c.34,0,.67.03,1,.05v-67.4c0-8.09-6.22-14.65-13.89-14.65h-127.48c-7.67,0-13.89,6.56-13.89,14.65v65.19l155.27,65.37v-25.81Z"/>
        <path class="cls-8" d="M55.73,199.33c3.2-4.92,8.57-8.15,14.65-8.15,9.81,0,17.76,8.38,17.76,18.73,0,3.92-1.15,7.56-3.11,10.57h74.78c-1.96-3.01-3.11-6.65-3.11-10.57,0-7.79,4.51-14.46,10.93-17.29l-111.91-47.12v53.83Z"/>
        <path class="cls-9" d="M174.47,191.18c-2.42,0-4.73.51-6.83,1.44l23.06,9.71c-2.76-6.56-8.98-11.15-16.23-11.15Z"/>
        <path class="cls-15" d="M211,197.46L55.73,132.08v13.42l111.91,47.12c2.1-.92,4.41-1.44,6.83-1.44,7.25,0,13.47,4.59,16.23,11.15l19.54,8.23c.48-1.49.75-3.07.75-4.73v-8.37Z"/>
      </g>
      <path class="cls-14" d="M232.15,131.45c-.31-.89-5.24.01-10.95,2l-173.13,60.3c-5.71,1.99-10.13,4.34-9.83,5.23s5.24-.01,10.95-2l173.13-60.3c5.71-1.99,10.13-4.34,9.83-5.23Z"/>
      <path class="cls-1" d="M174.47,191.18c-9.81,0-17.76,8.38-17.76,18.73,0,3.92,1.15,7.56,3.11,10.57h29.31c1.96-3.01,3.11-6.65,3.11-10.57,0-10.34-7.95-18.73-17.76-18.73Z"/>
      <rect class="cls-12" x="64.11" y="142.63" width="33.07" height="87.43" rx="12.46" ry="12.46"/>
      <rect class="cls-15" x="171.17" y="188.73" width="27.14" height="10.59" transform="translate(89.56 -56.41) rotate(22.79)"/>
      <ellipse class="cls-1" cx="162.43" cy="164.45" rx="16.04" ry="16.23"/>
      <ellipse class="cls-1" cx="118.31" cy="186.8" rx="16.04" ry="16.23"/>
      <g>
        <path class="cls-13" d="M115.81,159.01h24.98v25.64c0,5.93-4.82,10.75-10.75,10.75h-3.48c-5.93,0-10.75-4.82-10.75-10.75v-25.64h0Z"/>
        <path class="cls-13" d="M85.5,52.25h118.34v73.45c0,29.18-23.69,52.87-52.87,52.87h-12.61c-29.18,0-52.87-23.69-52.87-52.87V52.25h0Z"/>
        <path class="cls-13" d="M152.64,159.01h24.98v25.64c0,5.93-4.82,10.75-10.75,10.75h-3.48c-5.93,0-10.75-4.82-10.75-10.75v-25.64h0Z"/>
        <ellipse class="cls-12" cx="149.18" cy="97.75" rx="43.66" ry="58.18"/>
        <rect class="cls-3" x="120.74" y="126.85" width="19.21" height="46.17" rx="9.6" ry="9.6" transform="translate(178.41 -42.83) rotate(55)"/>
        <rect class="cls-3" x="158.61" y="126.85" width="19.21" height="46.17" rx="9.6" ry="9.6" transform="translate(387.37 97.53) rotate(124.84)"/>
      </g>
      <g>
        <path class="cls-9" d="M199.48,49.12l-125.74-.6v-26.22c.74-12.04,10.87-22.29,23.37-22.29h79.74c12.5,0,22.63,10.25,22.63,22.9v26.22Z"/>
        <rect class="cls-10" x="45.7" y="39.56" width="185.53" height="49.9" rx="14.19" ry="14.19"/>
      </g>
      <ellipse cx="125.08" cy="114.99" rx="6.77" ry="9.86"/>
      <ellipse cx="171.9" cy="114.99" rx="6.77" ry="9.86"/>
    </g>
  </g>
</svg>