<svg xmlns="http://www.w3.org/2000/svg" xmlns:xlink="http://www.w3.org/1999/xlink" width="1584" zoomAndPan="magnify" viewBox="0 0 1188 296.999993" height="396" preserveAspectRatio="xMidYMid meet" version="1.0"><path fill="#000000" d="M 610.113281 184.238281 C 609.671875 171.945312 609.414062 159.621094 609.398438 147.316406 C 609.667969 140.566406 610.070312 133.820312 610.054688 127.058594 C 609.859375 119.109375 610.105469 111.164062 609.914062 103.21875 C 609.757812 99.285156 609.835938 95.03125 607.921875 91.382812 C 604.246094 84.710938 581.660156 86.90625 574.421875 86.773438 C 569.976562 86.753906 565.445312 86.714844 560.992188 86.777344 C 558.238281 86.996094 555.652344 88.21875 553.136719 89.320312 C 558.941406 91.046875 565.21875 90.382812 571.238281 90.25 C 576.378906 90.199219 581.753906 89.949219 586.882812 89.949219 C 592.59375 90.144531 600.269531 89.03125 605.074219 92.433594 C 607.507812 96.949219 606.601562 103.363281 606.6875 108.398438 C 606.503906 120.308594 606.558594 133.140625 606.507812 145.105469 C 606.417969 156.84375 606.601562 168.597656 607.253906 180.324219 C 607.339844 185.113281 608.789062 190.945312 605.316406 194.875 C 601.070312 199.484375 593.945312 197.960938 588.277344 198.222656 C 584.574219 198.496094 580.285156 198.222656 577.089844 200.308594 C 579.179688 201.226562 582.640625 202.039062 584.914062 201.667969 C 587.804688 201.253906 590.789062 201.367188 593.714844 201.132812 C 605.140625 201.007812 611.691406 196.261719 610.113281 184.238281 Z M 610.113281 184.238281 " fill-opacity="1" fill-rule="nonzero"/><path fill="#000000" d="M 570.296875 197.808594 C 559.179688 196.429688 542.855469 203.140625 543.308594 185.449219 C 543.558594 172.371094 544.371094 159.296875 544.058594 146.203125 C 544.34375 133.402344 543.003906 120.605469 543.6875 107.828125 C 543.8125 102.15625 543.15625 95.453125 548.03125 91.5 C 549.042969 90.59375 550.253906 90.128906 550.988281 88.808594 C 549.367188 88.175781 547.363281 88.621094 545.761719 89.265625 C 543.902344 90.566406 542.671875 92.886719 541.917969 94.960938 C 540.523438 99.6875 541.570312 104.496094 540.878906 109.277344 C 540.664062 118.820312 540.882812 128.417969 541.109375 137.96875 C 541.316406 142.6875 541.054688 147.390625 540.757812 152.097656 C 540.570312 162.75 540.285156 173.40625 540.308594 184.0625 C 539.691406 194.996094 544.648438 201.828125 556.214844 201.398438 C 560.277344 201.429688 564.332031 201.324219 568.382812 201.253906 C 570.59375 201.019531 572.140625 199.832031 574.390625 198.953125 C 573.230469 198.105469 571.660156 198.140625 570.296875 197.808594 Z M 570.296875 197.808594 " fill-opacity="1" fill-rule="nonzero"/><path fill="#000000" d="M 563.675781 98.550781 C 563.675781 98.550781 568.8125 98.503906 568.8125 98.503906 C 568.871094 98.503906 568.933594 98.496094 568.996094 98.492188 C 570.226562 98.296875 572.695312 98.074219 573.9375 98.050781 C 575.269531 98.183594 577.738281 98.164062 579.066406 98 C 579.066406 98 581.507812 98.226562 581.507812 98.226562 C 581.769531 98.230469 584.269531 98.402344 584.484375 98.339844 C 584.484375 98.339844 587.054688 97.914062 587.054688 97.914062 C 589.054688 97.609375 588.539062 94.476562 586.539062 94.84375 C 586.539062 94.84375 584.136719 95.242188 584.136719 95.242188 C 582.910156 95.207031 580.449219 95.023438 579.226562 94.886719 C 579.332031 94.820312 576.53125 95.078125 576.496094 95.0625 C 576.496094 95.0625 574.019531 94.933594 574.019531 94.933594 C 572.617188 94.949219 570.082031 95.175781 568.695312 95.386719 C 568.695312 95.386719 563.640625 95.4375 563.640625 95.4375 C 561.617188 95.433594 561.644531 98.609375 563.675781 98.550781 Z M 563.675781 98.550781 " fill-opacity="1" fill-rule="nonzero"/><path fill="#000000" d="M 548.441406 102.839844 C 546.285156 102.8125 547 105.871094 546.878906 107.183594 C 546.808594 131.402344 547.023438 156.109375 547.558594 180.277344 C 547.554688 180.9375 548.210938 181.25 548.804688 181.15625 C 556.539062 181.261719 564.339844 181.40625 572.09375 181.3125 C 579.257812 181.292969 586.636719 181.65625 593.777344 181.1875 C 596.46875 180.863281 600.113281 181.003906 602.238281 179.765625 C 597.128906 178.738281 592.191406 178.421875 587.085938 178.742188 C 574.796875 178.960938 562.492188 178.703125 550.167969 178.503906 C 550.085938 154.558594 549.414062 130.222656 550.324219 106.308594 C 567.140625 106.214844 583.917969 106.714844 600.746094 106.414062 C 601.648438 131.292969 599.464844 155.988281 603.234375 180.757812 C 604.1875 176.480469 604.3125 172.332031 604.476562 167.746094 C 604.03125 151.898438 604.488281 136.1875 603.910156 120.386719 C 603.816406 115.078125 603.753906 109.785156 603.722656 104.503906 C 603.777344 103.925781 603.34375 103.394531 602.746094 103.402344 C 584.65625 103.5 566.535156 102.761719 548.441406 102.839844 Z M 548.441406 102.839844 " fill-opacity="1" fill-rule="nonzero"/><path fill="#000000" d="M 582.152344 191.359375 C 582.109375 190.574219 581.132812 190.074219 580.53125 189.660156 C 580.097656 189.753906 579.875 190.089844 579.558594 190.328125 C 578.875 190.6875 579.324219 191.5625 578.824219 192.121094 C 576.296875 195.269531 572.480469 194.234375 571.929688 190.226562 C 571.464844 187.027344 575.824219 183.652344 578.433594 186.195312 C 579.933594 187.226562 579.464844 189.253906 581.65625 189.660156 C 582.160156 189.457031 583.027344 188.371094 582.503906 187.90625 C 581.632812 186.292969 580.453125 185.105469 579.050781 183.9375 C 577.390625 182.8125 574.90625 183.015625 573.140625 183.820312 C 571.386719 184.886719 570.152344 186.652344 569.371094 188.535156 C 567.625 196.996094 579.996094 199.570312 582.152344 191.359375 Z M 582.152344 191.359375 " fill-opacity="1" fill-rule="nonzero"/><path fill="#000000" d="M 560.242188 156.601562 C 560.773438 156.289062 561.792969 156.296875 561.878906 155.558594 C 562.292969 154.3125 563.226562 153.300781 563.84375 152.148438 C 566.515625 148.890625 568.996094 145.449219 571.28125 141.882812 C 572.617188 139.648438 574.726562 138.042969 576.25 135.945312 C 579.476562 131.761719 582.539062 127.460938 585.550781 123.109375 C 586.640625 121.546875 587.734375 119.992188 588.804688 118.417969 C 589.128906 117.546875 588.660156 116.648438 588.574219 115.621094 C 587.710938 115.59375 586.535156 116.398438 586.039062 117.066406 C 585.167969 119.023438 583.863281 120.695312 582.679688 122.460938 C 580.453125 126.984375 576.914062 130.527344 573.882812 134.480469 C 570.582031 138.609375 567.648438 143.007812 564.886719 147.503906 C 563.949219 148.632812 562.972656 149.730469 562.132812 150.941406 C 560.890625 152.5625 558.519531 154.308594 559.777344 156.589844 C 559.96875 156.597656 560.140625 156.636719 560.242188 156.601562 Z M 560.242188 156.601562 " fill-opacity="1" fill-rule="nonzero"/><path fill="#000000" d="M 560.460938 170.398438 C 560.988281 170.089844 562.011719 170.09375 562.097656 169.355469 C 562.511719 168.109375 563.441406 167.097656 564.0625 165.945312 C 566.734375 162.6875 569.214844 159.246094 571.5 155.679688 C 572.835938 153.445312 574.945312 151.839844 576.46875 149.742188 C 579.695312 145.5625 582.757812 141.257812 585.765625 136.90625 C 586.855469 135.34375 587.953125 133.789062 589.023438 132.214844 C 589.347656 131.34375 588.878906 130.445312 588.789062 129.417969 C 587.929688 129.390625 586.753906 130.195312 586.253906 130.863281 C 585.386719 132.820312 584.082031 134.496094 582.898438 136.257812 C 580.667969 140.78125 577.132812 144.324219 574.097656 148.277344 C 570.800781 152.40625 567.867188 156.804688 565.105469 161.300781 C 564.164062 162.429688 563.191406 163.53125 562.351562 164.738281 C 561.109375 166.359375 558.738281 168.105469 559.996094 170.386719 C 560.183594 170.394531 560.359375 170.433594 560.460938 170.398438 Z M 560.460938 170.398438 " fill-opacity="1" fill-rule="nonzero"/></svg>