<svg xmlns="http://www.w3.org/2000/svg" xmlns:xlink="http://www.w3.org/1999/xlink" width="1584" zoomAndPan="magnify" viewBox="0 0 1188 296.999993" height="396" preserveAspectRatio="xMidYMid meet" version="1.0"><defs><clipPath id="a29123a130"><path d="M 522 96 L 640 96 L 640 212.382812 L 522 212.382812 Z M 522 96 " clip-rule="nonzero"/></clipPath></defs><g clip-path="url(#a29123a130)"><path fill="#000000" d="M 639.3125 150.457031 C 639.304688 148.304688 639.25 143.988281 639.207031 141.835938 C 638.4375 130.875 640.265625 119.667969 635.546875 109.371094 C 633.210938 119.152344 635.992188 129.414062 635.691406 139.398438 C 632.351562 138.023438 628.753906 138.914062 625.25 138.757812 C 618.507812 138.457031 611.785156 138.902344 605.042969 138.835938 C 594.699219 138.5625 584.277344 137.675781 573.914062 138.011719 C 563.738281 137.765625 553.621094 139.273438 543.460938 139.117188 C 537.78125 139.832031 531.292969 137.9375 526.203125 141.078125 C 526.519531 131.363281 527.292969 121.679688 526.382812 111.949219 C 536.441406 109.535156 547.144531 111.242188 557.453125 110.703125 C 557.054688 113.914062 556.570312 117.113281 555.984375 120.300781 C 554.097656 120.277344 553.804688 121.921875 554.585938 123.453125 C 554.234375 124.289062 553.789062 125.125 553.226562 125.839844 C 552.847656 126.445312 552.242188 126.960938 552.121094 127.699219 C 550.628906 126.378906 551.773438 123.976562 553.375 123.265625 C 553.683594 122.546875 553.527344 121.664062 553.972656 120.71875 C 553.683594 119.992188 552.257812 119.496094 551.609375 119.855469 C 550.296875 121.027344 548.980469 122.253906 548.414062 123.925781 C 547.8125 126.703125 549.113281 129.4375 550.964844 131.4375 C 557.671875 135.875 563.671875 127.324219 558.3125 121.878906 C 558.691406 120.410156 559.097656 118.941406 559.535156 117.484375 C 559.960938 115.164062 559.890625 112.761719 560.703125 110.519531 C 577.148438 108.285156 593.828125 108.140625 610.386719 109.152344 C 610.203125 112.574219 609.476562 115.933594 608.851562 119.308594 C 606.492188 119.175781 604.070312 120.238281 602.308594 121.738281 C 599.625 124.386719 599.269531 129.453125 602.539062 131.761719 C 605.03125 133.734375 608.636719 133.828125 611.285156 132.179688 C 612.972656 131.453125 612.410156 130.023438 611.5625 128.726562 C 608.023438 127.921875 611.082031 129.742188 606.511719 129.972656 C 607.816406 127.617188 609.261719 125.425781 610.554688 123.105469 C 613.011719 126.148438 610.039062 126.871094 612.757812 129.484375 C 613.457031 129.660156 614.167969 129.253906 614.691406 128.847656 C 614.890625 128.515625 614.519531 128.015625 614.632812 127.664062 C 614.539062 125 613.882812 121.867188 611.386719 120.417969 C 612.742188 116.867188 612.691406 112.972656 613.828125 109.355469 C 621.007812 109.511719 629.558594 111.570312 636.28125 108.609375 C 634.84375 107.710938 633.210938 107.722656 631.664062 107.199219 C 630.355469 106.800781 629.089844 106.617188 627.671875 106.785156 C 623.144531 107.023438 618.554688 106.601562 614.011719 106.59375 C 613.71875 104.03125 614.003906 101.046875 611.976562 99.015625 C 606.945312 93.945312 599.113281 99.753906 599.882812 105.9375 C 593.28125 105.558594 586.449219 105.933594 579.816406 106.011719 C 573.636719 106.082031 567.347656 106.578125 561.238281 107.476562 C 561.253906 105.636719 561.253906 103.800781 561.207031 101.945312 C 560.984375 97.148438 554.628906 94.714844 552.085938 99.433594 C 551.132812 101.078125 548.550781 106.421875 550.167969 107.855469 C 545.277344 108.160156 523.425781 105.023438 522.8125 111.28125 C 524.691406 136.871094 521.015625 162.75 523.738281 188.367188 C 524.402344 193.160156 524.253906 198.085938 525.433594 202.738281 C 526.117188 204.6875 526.851562 206.597656 527.652344 208.957031 C 530.363281 199 526.488281 188.59375 526.453125 178.476562 C 525.859375 166.378906 525.757812 154.210938 526.171875 142.097656 C 528.886719 143.097656 529.28125 143.152344 532.027344 142.535156 C 534.382812 142.304688 536.742188 142.125 539.097656 141.902344 C 540.976562 141.734375 542.84375 141.742188 544.734375 141.882812 C 549.808594 141.957031 554.902344 141.285156 559.992188 141.398438 C 566.195312 141.042969 572.398438 140.65625 578.589844 141.335938 C 592.414062 141.847656 606.238281 141.75 620.070312 142.101562 C 621.640625 142.136719 624.871094 142.21875 626.441406 142.269531 C 626.441406 142.269531 632.816406 142.449219 632.816406 142.449219 C 633.859375 142.460938 634.785156 141.8125 635.71875 141.371094 C 636.003906 152.921875 636.550781 164.472656 636.128906 176.03125 C 635.765625 186.558594 634.730469 197.0625 634.234375 207.585938 C 612.914062 209.136719 591.480469 209.101562 570.117188 209.09375 C 564.007812 208.828125 557.898438 208.464844 551.785156 208.351562 C 543.933594 208.382812 534.144531 206.210938 526.9375 209.695312 C 528.378906 210.535156 530.035156 210.453125 531.578125 210.917969 C 533.871094 211.65625 536.242188 210.9375 538.625 211 C 543.03125 210.96875 547.445312 210.996094 551.855469 211 C 569.433594 211.765625 587.148438 212.34375 604.765625 211.800781 C 610.785156 211.613281 616.875 211.527344 622.902344 211.570312 C 627.21875 211.519531 631.523438 211.296875 635.835938 210.992188 C 636.796875 210.925781 637.585938 210.160156 637.648438 209.175781 C 638.9375 189.632812 639.585938 170.058594 639.3125 150.457031 Z M 606.238281 125.125 C 605.417969 126.386719 604 127.113281 603.792969 128.6875 C 603.207031 127.746094 603.675781 126.550781 603.878906 125.566406 C 604.050781 125.03125 604.464844 124.550781 604.761719 124.113281 C 605.453125 122.855469 606.558594 122.398438 607.894531 122.324219 C 607.277344 123.226562 606.8125 124.214844 606.238281 125.125 Z M 603.589844 104.414062 C 603.75 102.078125 606.355469 99.339844 608.78125 100.378906 C 610.957031 101.476562 610.261719 104.488281 610.527344 106.523438 C 608.148438 106.480469 605.78125 106.363281 603.410156 106.195312 C 603.84375 105.683594 603.457031 105 603.589844 104.414062 Z M 557.417969 127.125 C 557.300781 128.40625 556.320312 129.679688 554.929688 129.234375 C 555.636719 127.703125 556.207031 126.054688 556.996094 124.566406 C 557.210938 125.5 557.964844 126.070312 557.417969 127.125 Z M 553.476562 107.03125 C 553.121094 105.039062 554.050781 103.210938 554.828125 101.441406 C 555.152344 99.953125 556.496094 99.210938 557.503906 100.628906 C 558.347656 102.097656 557.648438 105.832031 557.703125 107.742188 C 556.171875 107.808594 554.628906 107.847656 553.082031 107.859375 C 553.28125 107.597656 553.523438 107.347656 553.476562 107.03125 Z M 553.476562 107.03125 " fill-opacity="1" fill-rule="nonzero"/></g><path fill="#000000" d="M 590.308594 167.394531 C 590.292969 167.402344 590.273438 167.414062 590.257812 167.421875 C 590.277344 167.414062 590.292969 167.402344 590.308594 167.394531 Z M 590.308594 167.394531 " fill-opacity="1" fill-rule="nonzero"/><path fill="#000000" d="M 590.257812 167.421875 C 590.253906 167.421875 590.253906 167.425781 590.25 167.425781 C 590.253906 167.425781 590.257812 167.425781 590.257812 167.421875 Z M 590.257812 167.421875 " fill-opacity="1" fill-rule="nonzero"/><path fill="#000000" d="M 590.5 167.25 C 590.578125 167.15625 590.492188 166.972656 590.597656 166.933594 C 592.46875 165.003906 591.441406 162.761719 591.390625 160.40625 C 591.277344 158.164062 591.433594 155.855469 590.597656 153.652344 C 590.285156 152.207031 585.738281 153.332031 584.371094 153.066406 C 580.445312 153.179688 576.578125 152.453125 572.652344 152.972656 C 569.417969 152.816406 569.660156 154.4375 569.601562 157.03125 C 569.613281 160.441406 569.699219 163.898438 570.023438 167.265625 C 569.992188 168.019531 570.59375 168.683594 571.371094 168.601562 C 576.246094 167.929688 581.132812 168.367188 586.019531 168.691406 C 586.679688 168.832031 590.1875 167.785156 589.101562 166.910156 C 588.707031 166.605469 588.5625 166.257812 588.800781 165.90625 C 589.234375 166.300781 589.671875 166.796875 590.226562 167.035156 C 590.304688 167.113281 590.324219 167.269531 590.332031 167.386719 C 590.328125 167.390625 590.320312 167.394531 590.3125 167.402344 C 590.375 167.359375 590.4375 167.3125 590.5 167.25 Z M 573.183594 155.222656 C 573.191406 155.234375 573.175781 155.246094 573.167969 155.253906 C 573.167969 155.234375 573.171875 155.21875 573.175781 155.214844 C 573.179688 155.214844 573.179688 155.21875 573.183594 155.222656 Z M 587.132812 165.222656 C 584.558594 165.757812 581.773438 165.988281 579.148438 165.5625 C 577.09375 165.25 575.003906 165.742188 572.9375 165.652344 C 572.617188 162.597656 572.304688 159.46875 572.96875 156.453125 C 577.859375 155.996094 582.808594 156.203125 587.722656 156.085938 C 587.964844 158.914062 587.875 161.710938 587.945312 164.644531 C 587.953125 164.90625 588.125 165.203125 588.355469 165.445312 C 587.957031 165.117188 587.558594 164.960938 587.132812 165.222656 Z M 587.132812 165.222656 " fill-opacity="1" fill-rule="nonzero"/><path fill="#000000" d="M 590.226562 167.4375 C 590.234375 167.433594 590.246094 167.429688 590.253906 167.425781 C 590.222656 167.4375 590.191406 167.445312 590.164062 167.453125 C 590.183594 167.449219 590.203125 167.445312 590.226562 167.4375 Z M 590.226562 167.4375 " fill-opacity="1" fill-rule="nonzero"/><path fill="#000000" d="M 590.164062 167.453125 C 590.148438 167.457031 590.132812 167.460938 590.121094 167.464844 C 590.132812 167.460938 590.148438 167.457031 590.164062 167.453125 Z M 590.164062 167.453125 " fill-opacity="1" fill-rule="nonzero"/><path fill="#000000" d="M 590.121094 167.464844 C 590.082031 167.472656 590.042969 167.472656 590.007812 167.46875 C 590.042969 167.472656 590.082031 167.46875 590.121094 167.464844 Z M 590.121094 167.464844 " fill-opacity="1" fill-rule="nonzero"/><path fill="#000000" d="M 538.675781 164.839844 C 538.976562 169.179688 538.015625 169.914062 542.984375 169.171875 C 545.265625 168.214844 561.09375 170.089844 559.476562 167.050781 C 558.46875 166.644531 556.832031 165.796875 555.882812 166.03125 C 554.445312 166.417969 552.78125 166.234375 551.265625 166.441406 C 548.144531 166.335938 544.9375 166.15625 541.785156 166.476562 C 541.460938 162.945312 541.480469 159.429688 542.0625 155.929688 C 547.28125 156.046875 552.488281 155.992188 557.679688 155.761719 C 557.816406 157.273438 558.132812 160.414062 558.25 161.9375 C 558.363281 165.460938 558.121094 164.984375 560.644531 167.523438 C 560.660156 167.703125 560.589844 167.910156 560.484375 168.046875 C 560.621094 167.9375 560.734375 167.707031 560.753906 167.523438 C 561.410156 167.160156 561.558594 166.265625 561.859375 165.644531 C 562.519531 164.449219 562.035156 163.265625 561.882812 161.992188 C 561.371094 159.238281 561.398438 156.496094 560.804688 153.773438 C 560.703125 152.050781 558.851562 152.574219 557.683594 152.652344 C 555.007812 152.796875 552.351562 152.957031 549.683594 152.878906 C 546.867188 152.503906 544.015625 152.496094 541.199219 152.410156 C 540.136719 152.207031 538.773438 152.425781 538.714844 153.75 C 538.597656 157.445312 538.644531 161.144531 538.675781 164.839844 Z M 538.675781 164.839844 " fill-opacity="1" fill-rule="nonzero"/><path fill="#000000" d="M 600.214844 165.28125 C 599.667969 168.261719 600.03125 169.5 603.332031 169.324219 C 606.519531 169.117188 609.613281 169.878906 612.847656 169.75 C 614.972656 169.648438 617.957031 169.5625 620.054688 169.347656 C 622.726562 168.984375 621.582031 165.570312 621.773438 163.703125 C 621.707031 161.046875 621.574219 158.398438 621.394531 155.871094 C 621.273438 155.046875 620.257812 154.988281 619.65625 154.703125 C 619.046875 155.964844 618.476562 157.550781 618.273438 158.800781 C 618.566406 161.21875 618.234375 163.878906 618.421875 166.363281 C 613.445312 167.265625 608.570312 165.835938 603.585938 165.824219 C 603.582031 162.203125 603.59375 158.609375 603.183594 155.019531 C 607.585938 154.378906 611.964844 155.394531 616.375 155.660156 C 618.441406 155.738281 619.015625 154.625 620.636719 153.679688 C 620.554688 152.820312 619.421875 152.824219 618.800781 152.476562 C 618.085938 151.683594 617.410156 152.394531 616.613281 152.4375 C 615.316406 152.542969 614 152.574219 612.671875 152.628906 C 611.617188 152.667969 610.570312 152.53125 609.515625 152.265625 C 607.332031 151.84375 605.015625 152.269531 602.800781 152.226562 C 600.722656 152.132812 599.855469 152.71875 600.128906 154.90625 C 600.503906 158.355469 600.921875 161.851562 600.214844 165.28125 Z M 600.214844 165.28125 " fill-opacity="1" fill-rule="nonzero"/><path fill="#000000" d="M 570.082031 179.167969 C 570.074219 179.171875 570.0625 179.175781 570.054688 179.179688 C 570.082031 179.164062 570.113281 179.15625 570.140625 179.152344 C 570.125 179.15625 570.101562 179.15625 570.082031 179.167969 Z M 570.082031 179.167969 " fill-opacity="1" fill-rule="nonzero"/><path fill="#000000" d="M 569.195312 180.394531 C 567.972656 182.191406 568.933594 184.207031 568.917969 186.199219 C 569.027344 188.441406 568.875 190.75 569.710938 192.953125 C 570.015625 194.394531 574.574219 193.273438 575.9375 193.542969 C 579.863281 193.425781 583.730469 194.152344 587.65625 193.632812 C 589.277344 193.609375 590.574219 193.523438 590.628906 191.515625 C 590.820312 187.4375 590.621094 183.371094 590.285156 179.339844 C 590.3125 178.585938 589.714844 177.921875 588.9375 178.003906 C 584.0625 178.675781 579.171875 178.242188 574.285156 177.914062 C 573.621094 177.773438 570.121094 178.820312 571.203125 179.699219 C 571.597656 180 571.746094 180.347656 571.507812 180.699219 C 571.070312 180.304688 570.636719 179.808594 570.082031 179.570312 C 570.003906 179.492188 569.984375 179.335938 569.972656 179.21875 C 569.980469 179.214844 569.988281 179.210938 569.996094 179.203125 C 569.789062 179.269531 569.769531 179.5 569.734375 179.652344 C 569.421875 179.773438 569.382812 180.101562 569.195312 180.394531 Z M 587.125 191.382812 C 587.121094 191.367188 587.132812 191.355469 587.144531 191.347656 C 587.140625 191.367188 587.136719 191.386719 587.132812 191.390625 C 587.132812 191.386719 587.125 191.386719 587.125 191.382812 Z M 573.175781 181.378906 C 575.746094 180.84375 578.535156 180.613281 581.160156 181.039062 C 583.214844 181.351562 585.300781 180.859375 587.371094 180.949219 C 587.691406 184.003906 588.003906 187.132812 587.335938 190.148438 C 582.449219 190.605469 577.5 190.398438 572.582031 190.515625 C 572.34375 187.6875 572.429688 184.890625 572.363281 181.957031 C 572.355469 181.695312 572.183594 181.398438 571.949219 181.15625 C 572.351562 181.484375 572.75 181.644531 573.175781 181.378906 Z M 573.175781 181.378906 " fill-opacity="1" fill-rule="nonzero"/><path fill="#000000" d="M 570.1875 179.140625 C 570.226562 179.132812 570.261719 179.128906 570.296875 179.132812 C 570.261719 179.132812 570.222656 179.132812 570.1875 179.140625 Z M 570.1875 179.140625 " fill-opacity="1" fill-rule="nonzero"/><path fill="#000000" d="M 570.144531 179.152344 C 570.160156 179.148438 570.171875 179.140625 570.1875 179.140625 C 570.171875 179.140625 570.160156 179.144531 570.144531 179.152344 Z M 570.144531 179.152344 " fill-opacity="1" fill-rule="nonzero"/><path fill="#000000" d="M 569.996094 179.210938 C 570.015625 179.199219 570.03125 179.1875 570.050781 179.179688 C 570.03125 179.1875 570.015625 179.199219 569.996094 179.210938 Z M 569.996094 179.210938 " fill-opacity="1" fill-rule="nonzero"/><path fill="#000000" d="M 598.726562 179.023438 C 598.59375 183.636719 598.898438 188.265625 599.730469 192.8125 C 599.757812 193.402344 600.226562 193.90625 600.84375 193.875 C 604 193.535156 607.125 193.910156 610.277344 193.820312 C 612.925781 193.800781 616.464844 194.925781 618.003906 191.996094 C 617.6875 191.382812 615.960938 190.085938 615.304688 190.570312 C 613.660156 191.066406 611.867188 190.90625 610.183594 191.175781 C 607.589844 191.308594 605.011719 190.753906 602.40625 191.105469 C 602.265625 187.707031 601.175781 184.328125 601.859375 180.921875 C 607.324219 180.867188 612.78125 180.976562 618.238281 180.476562 C 618.277344 183.640625 618.335938 186.804688 618.425781 189.972656 C 618.734375 191.128906 619.890625 191.714844 620.75 192.730469 C 621.617188 192.171875 622.289062 190.28125 622.269531 189.292969 C 622.019531 188.035156 621.890625 186.78125 621.808594 185.519531 C 621.507812 183.996094 622.382812 176.761719 620.097656 177.210938 C 614.539062 178.144531 608.972656 177.277344 603.390625 177.457031 C 601.824219 177.609375 598.914062 176.726562 598.726562 179.023438 Z M 598.726562 179.023438 " fill-opacity="1" fill-rule="nonzero"/><path fill="#000000" d="M 538.53125 182.898438 C 538.597656 185.550781 538.730469 188.199219 538.910156 190.726562 C 539.03125 191.550781 540.046875 191.613281 540.648438 191.894531 C 541.257812 190.632812 541.832031 189.046875 542.03125 187.796875 C 541.738281 185.382812 542.070312 182.71875 541.882812 180.238281 C 546.859375 179.335938 551.734375 180.761719 556.71875 180.773438 C 556.722656 184.394531 556.710938 187.988281 557.121094 191.578125 C 552.71875 192.222656 548.339844 191.203125 543.929688 190.9375 C 541.863281 190.859375 541.289062 191.976562 539.667969 192.921875 C 539.746094 193.738281 540.808594 193.796875 541.441406 194.078125 C 542.257812 194.929688 542.804688 194.230469 543.691406 194.164062 C 547.929688 193.535156 552.082031 194.859375 556.335938 194.390625 C 557.714844 194.320312 560.242188 194.753906 560.210938 192.699219 C 560.140625 190.011719 559.578125 187.332031 559.683594 184.640625 C 560.511719 177.363281 561.726562 177.125 553.722656 177.253906 C 550.664062 176.796875 547.019531 176.78125 543.878906 177.003906 C 538.25 177.128906 538.300781 177.375 538.53125 182.898438 Z M 538.53125 182.898438 " fill-opacity="1" fill-rule="nonzero"/></svg>