<svg xmlns="http://www.w3.org/2000/svg" xmlns:xlink="http://www.w3.org/1999/xlink" width="1584" zoomAndPan="magnify" viewBox="0 0 1188 296.999993" height="396" preserveAspectRatio="xMidYMid meet" version="1.0"><defs><clipPath id="be87f726b1"><path d="M 511.082031 115.371094 L 640 115.371094 L 640 207 L 511.082031 207 Z M 511.082031 115.371094 " clip-rule="nonzero"/></clipPath></defs><g clip-path="url(#be87f726b1)"><path fill="#000000" d="M 639.765625 153.707031 C 640.082031 145.410156 638.875 137.117188 638.308594 128.847656 C 638.074219 126.511719 637.832031 123.929688 637.542969 121.613281 C 637.152344 120.273438 635.855469 119.585938 634.867188 118.457031 C 634.886719 118.402344 634.910156 118.34375 634.929688 118.289062 C 634.867188 118.304688 634.804688 118.316406 634.738281 118.328125 C 634.714844 118.304688 634.695312 118.285156 634.671875 118.261719 C 634.621094 118.3125 634.566406 118.375 634.488281 118.371094 C 634.828125 118.140625 635.140625 117.832031 635.417969 117.394531 C 634.671875 116.574219 633.613281 116.628906 632.683594 116.164062 C 631.320312 115.40625 629.996094 116.273438 628.578125 116.28125 C 628.578125 116.28125 620.882812 116.785156 620.882812 116.785156 C 618.84375 116.929688 616.816406 116.886719 614.765625 116.695312 C 609.253906 116.519531 603.71875 117.222656 598.191406 117.082031 C 591.460938 117.46875 584.726562 117.933594 577.996094 117.304688 C 562.976562 116.984375 547.957031 117.636719 532.945312 118.09375 C 528.941406 118.175781 523.066406 118.25 519.089844 118.4375 C 517.273438 118.726562 515.710938 120.101562 514.273438 121.210938 C 514.179688 121.195312 514.089844 121.179688 513.996094 121.167969 C 514.019531 121.484375 514.003906 121.75 514.042969 121.984375 C 513.839844 121.464844 513.574219 120.96875 513.214844 120.503906 C 512.230469 121.902344 512.332031 123.605469 511.851562 125.152344 C 511.082031 127.464844 511.988281 129.785156 512.058594 132.160156 C 512.253906 135.855469 512.761719 141.410156 513 145.1875 C 513.621094 164.902344 514.179688 184.679688 513.785156 204.421875 C 513.808594 206.394531 516.128906 205.875 517.46875 205.957031 C 526.675781 206.226562 535.855469 205.992188 545.039062 205.695312 C 551.492188 205.421875 557.859375 206.582031 564.375 206.640625 C 577.832031 206.417969 591.261719 206.5 604.773438 206.367188 C 615.542969 205.59375 626.859375 207.566406 636.71875 202.171875 C 636.933594 202.441406 637.234375 202.699219 637.679688 202.9375 C 638.480469 202.53125 638.546875 201.765625 639.0625 201.117188 C 639.902344 200.214844 639.113281 199.25 639.179688 198.242188 C 639.179688 198.242188 639.070312 192.835938 639.070312 192.835938 C 639.898438 184.378906 639.496094 175.851562 639.347656 167.351562 C 639.894531 162.820312 640.042969 158.261719 639.765625 153.707031 Z M 633.433594 122.886719 C 634.375 126.363281 634.558594 129.9375 634.929688 133.496094 C 635.425781 136.609375 635.941406 139.734375 636.105469 142.890625 C 636.488281 149.027344 635.863281 155.292969 636.050781 161.449219 C 636.070312 169.421875 636.308594 177.386719 636.652344 185.351562 C 636.332031 189.726562 635.992188 194.113281 635.628906 198.488281 C 633.53125 197.25 631.878906 195.507812 630.078125 193.90625 C 628.347656 192.605469 626.578125 191.328125 625.015625 189.820312 C 621.203125 186.042969 618 181.691406 613.894531 178.167969 C 610.851562 175.054688 607.367188 172.433594 603.980469 169.726562 C 601.738281 167.476562 599.726562 164.851562 597.25 162.878906 C 604.566406 154.902344 611.847656 146.882812 619.253906 138.980469 C 623.765625 133.417969 629.964844 128.855469 633.375 122.574219 C 633.386719 122.679688 633.402344 122.785156 633.433594 122.886719 Z M 517.570312 122.3125 C 520.824219 123.097656 524.199219 121.941406 527.527344 122.023438 C 534.839844 122.042969 542.101562 121.097656 549.40625 120.886719 C 558.292969 120.640625 567.160156 121.292969 576.054688 121.039062 C 587.5 120.921875 598.929688 120.429688 610.34375 119.644531 C 613.902344 119.699219 617.460938 119.808594 621.015625 119.683594 C 625.242188 119.648438 629.613281 120.417969 633.652344 118.796875 C 628.558594 121.71875 625.351562 126.628906 621.496094 130.90625 C 610.714844 142.304688 601.214844 154.960938 589.382812 165.339844 C 577.574219 176.710938 568.496094 172.726562 557.515625 162.96875 C 548.835938 155.730469 539.703125 148.742188 532.390625 140.058594 C 529.828125 137.308594 527.09375 134.332031 524.816406 131.347656 C 522.261719 128.042969 519.597656 124.523438 516.191406 122.039062 C 516.644531 122.136719 517.113281 122.238281 517.570312 122.3125 Z M 514.550781 123.824219 C 514.46875 123.398438 514.371094 122.980469 514.25 122.574219 C 515.441406 126.03125 516.125 126.824219 518.710938 129.3125 C 520.992188 131.941406 523.410156 134.625 525.808594 137.136719 C 529.738281 141.273438 533.09375 145.910156 537.449219 149.671875 C 542.136719 153.933594 546.753906 158.585938 551.742188 162.503906 C 551.125 162.683594 550.324219 162.722656 549.917969 163.242188 C 548.539062 165.273438 546.695312 166.816406 545 168.546875 C 542.992188 171.0625 540.878906 173.523438 538.464844 175.671875 C 533.800781 179.0625 530.015625 183.585938 526.277344 187.945312 C 523.410156 191.964844 520.578125 195.9375 517.101562 199.464844 C 517.605469 185.667969 516.53125 171.894531 516.34375 158.109375 C 516.351562 153.707031 516.0625 149.300781 515.898438 144.902344 C 515.628906 137.867188 516.039062 130.742188 514.550781 123.824219 Z M 625.824219 201.304688 C 605.628906 203.261719 585.214844 203.089844 564.925781 203.128906 C 549.648438 201.355469 534.207031 202.085938 518.882812 202.726562 C 520.039062 201 520.917969 199.035156 522.640625 197.765625 C 525.097656 194.90625 527.386719 191.855469 529.707031 188.859375 C 531.386719 186.453125 534.039062 185.054688 536.019531 182.929688 C 537.78125 180.699219 540.191406 179.136719 542.039062 176.992188 C 544.386719 174.253906 547.074219 171.816406 549.65625 169.304688 C 550.773438 168.257812 552.015625 167.0625 553.136719 166.027344 C 553.574219 165.460938 553.308594 164.519531 553.335938 163.78125 C 556.316406 166.152344 559.371094 168.589844 562.386719 170.917969 C 574.902344 180.484375 584.714844 175.601562 594.675781 165.515625 C 596.859375 166.652344 598.976562 168.320312 600.464844 170.328125 C 603.800781 173.777344 607.738281 176.65625 611.191406 180 C 617.363281 188.0625 625.398438 194.445312 632.695312 201.472656 C 630.386719 201.351562 628.1875 201.058594 625.824219 201.304688 Z M 636.4375 201.960938 C 636.472656 201.957031 636.511719 201.953125 636.550781 201.949219 C 636.570312 201.976562 636.59375 202.011719 636.613281 202.042969 C 636.554688 202.015625 636.496094 201.988281 636.4375 201.960938 Z M 636.4375 201.960938 " fill-opacity="1" fill-rule="nonzero"/></g></svg>